<?xml version="1.0" encoding="UTF-8" standalone="no"?>
<!-- Created with Inkscape (http://www.inkscape.org/) -->
<svg xmlns:dc="http://purl.org/dc/elements/1.1/" xmlns:cc="http://creativecommons.org/ns#" xmlns:rdf="http://www.w3.org/1999/02/22-rdf-syntax-ns#" xmlns:svg="http://www.w3.org/2000/svg" xmlns="http://www.w3.org/2000/svg" xmlns:sodipodi="http://sodipodi.sourceforge.net/DTD/sodipodi-0.dtd" xmlns:inkscape="http://www.inkscape.org/namespaces/inkscape" width="210mm" height="297mm" viewBox="0 0 210 297" version="1.1" id="svg8" inkscape:version="0.92.1 r15371" sodipodi:docname="skyrim.svg">
  <defs id="defs2"/>
  <sodipodi:namedview id="base" pagecolor="#ffffff" bordercolor="#666666" borderopacity="1.0" inkscape:pageopacity="0.0" inkscape:pageshadow="2" inkscape:zoom="0.35355339" inkscape:cx="-101.42857" inkscape:cy="550" inkscape:document-units="mm" inkscape:current-layer="layer1" showgrid="false" inkscape:window-width="1920" inkscape:window-height="991" inkscape:window-x="0" inkscape:window-y="31" inkscape:window-maximized="1"/>
  <metadata id="metadata5">
    <rdf:RDF>
      <cc:Work rdf:about="">
        <dc:format>image/svg+xml</dc:format>
        <dc:type rdf:resource="http://purl.org/dc/dcmitype/StillImage"/>
        <dc:title/>
      </cc:Work>
    </rdf:RDF>
  </metadata>
  <g inkscape:label="Layer 1" inkscape:groupmode="layer" id="layer1">
    <path style="fill:#d35f5f;stroke-width:0.73528284" d="m 97.660021,256.81137 c -0.212497,-0.70771 -2.732666,-6.47659 -5.600379,-12.81973 -2.86771,-6.34314 -5.214018,-12.27975 -5.214018,-13.19247 0,-0.91271 1.707499,-4.26032 3.794452,-7.43914 l 3.794446,-5.77964 -2.329824,-5.65986 c -1.281411,-3.11292 -2.327155,-6.087 -2.323887,-6.60908 0.0066,-1.05977 3.752716,-8.55488 6.458121,-12.92133 3.564077,-5.75232 3.994078,-8.12662 2.763367,-15.2582 -1.937742,-11.22863 -4.454264,-16.10816 -10.382135,-20.13092 -3.706257,-2.51514 -4.482727,-2.37649 -4.119407,0.73557 0.165531,1.41793 0.07128,3.8022 -0.20937,5.29841 l -0.510348,2.72035 -1.3044,-3.8531 c -1.406454,-4.15455 -3.654016,-7.01099 -6.80756,-8.65177 -3.258629,-1.69547 -3.529112,-1.37693 -3.529112,4.1561 0,2.85404 -0.37984,7.48917 -0.844087,10.30031 -0.745423,4.51368 -0.688029,5.45723 0.490973,8.07179 1.54126,3.4179 6.087777,7.80629 8.790326,8.48459 l 1.85675,0.46601 -0.02239,17.7509 c -0.01325,10.49231 -0.285184,17.29989 -0.665089,16.64797 -1.753395,-3.00881 -41.958963,-91.46086 -41.958963,-92.30952 0,-0.54132 8.054089,-18.4576 17.897979,-39.813968 9.843889,-21.356366 19.510607,-42.386689 21.481602,-46.734049 1.970995,-4.347359 3.84322,-7.904291 4.160512,-7.904291 0.317285,0 0.576879,1.770546 0.576879,3.934544 0,2.784739 0.53719,4.944849 1.838206,7.391735 2.408953,4.530607 2.318891,5.249352 -0.405363,3.235221 -1.91561,-1.416271 -2.345748,-1.500102 -2.942521,-0.573475 -2.188966,3.398884 -11.725414,41.817815 -11.725414,47.237495 0,0.96385 0.859544,2.55461 1.910095,3.53502 2.503279,2.33613 4.379059,5.023538 5.080833,7.279258 0.546425,1.75636 0.471433,1.73699 -2.134963,-0.55146 -3.419065,-3.00198 -7.471645,-3.32348 -8.479469,-0.67271 -1.276373,3.35712 -3.938665,20.89581 -3.460861,22.79952 0.717076,2.85707 4.282922,4.45284 8.764217,3.92209 6.344572,-0.75142 7.383032,-3.32861 3.076511,-7.63513 l -2.596469,-2.59646 2.409669,0.48193 c 3.335908,0.66718 7.254391,3.97282 9.184685,7.74822 0.892138,1.74491 1.805496,3.35599 2.02969,3.58018 0.727183,0.72718 -0.523132,-4.57272 -1.569814,-6.65417 -1.386947,-2.75812 -0.298106,-2.53909 2.686705,0.54045 1.366008,1.40936 2.574929,2.4712 2.686482,2.35964 0.111562,-0.11155 -0.771309,-3.00178 -1.961933,-6.4227 -2.514991,-7.22618 -2.676358,-10.21249 -0.777753,-14.39335 1.756958,-3.86895 4.978625,-6.29984 11.603658,-8.755508 6.71706,-2.48978 10.43376,-5.64478 11.01349,-9.34904 0.38753,-2.47618 0.14455,-3.03463 -2.4486,-5.62778 -3.57011,-3.5701 -7.975501,-4.96775 -11.741144,-3.72498 -3.274959,1.08083 -8.363516,5.88764 -8.363516,7.90043 0,3.72278 -2.990293,1.88758 -3.098019,-1.90132 -0.03383,-1.18828 0.484009,-2.93922 1.150654,-3.89099 0.666645,-0.95177 1.212082,-2.82812 1.212082,-4.16966 0,-1.34155 0.661748,-3.73633 1.470565,-5.32173 1.091755,-2.140021 1.474771,-4.35797 1.486912,-8.610279 0.01226,-4.28359 0.33666,-6.142291 1.286744,-7.371944 1.251804,-1.620145 1.270768,-1.58786 1.295551,2.205849 0.01523,2.328434 0.652722,5.230403 1.613045,7.342651 l 1.587888,3.492593 4.269218,-0.03227 c 2.34808,-0.01775 5.59273,-0.488806 7.21036,-1.046789 l 2.94113,-1.014516 -2.48893,1.965893 c -1.36892,1.081241 -3.50948,2.839602 -4.75681,3.907472 l -2.26787,1.94157 4.81819,2.18467 c 5.43027,2.4622 7.9455,5.31874 8.53174,9.68946 0.84354,6.2891 -2.69166,10.86599 -12.28789,15.908668 -4.098864,2.15389 -5.578244,3.36726 -6.346096,5.20499 -1.250273,2.99232 -0.762066,4.34384 3.806304,10.53704 1.931792,2.61887 4.401482,6.72031 5.488202,9.11431 l 1.97585,4.35273 0.81046,-2.12913 c 1.02204,-2.68497 2.18498,-4.09929 4.73587,-5.75955 l 2.01901,-1.31409 -1.00022,2.47225 c -0.55013,1.35975 -1.20415,3.63034 -1.45338,5.04576 -0.40577,2.30438 -0.24319,2.15405 1.5547,-1.43759 2.26046,-4.5157 5.98565,-7.85048 9.57046,-8.56744 l 2.40967,-0.48193 -2.59647,2.59646 c -4.31152,4.31151 -3.35754,6.71098 3.00363,7.55482 4.62081,0.61298 8.10042,-0.92079 8.86042,-3.90557 0.51649,-2.02847 -2.04046,-18.93843 -3.40729,-22.53344 -1.07241,-2.82067 -5.00995,-2.64336 -8.45415,0.38068 -1.4295,1.25511 -2.59908,2.10385 -2.59908,1.88608 0,-1.51184 1.88685,-4.65256 4.49497,-7.482038 3.02915,-3.28624 3.0598,-3.37468 2.61352,-7.54229 -0.54819,-5.1192 -8.01582,-35.376597 -10.11731,-40.993325 -0.82969,-2.217562 -1.77102,-4.03193 -2.09183,-4.03193 -0.32081,0 -1.45511,0.685769 -2.52066,1.523932 -2.38065,1.872619 -2.39388,1.335801 -0.0829,-3.362139 1.21957,-2.479207 1.81068,-4.933483 1.81522,-7.536649 0.003,-2.123129 0.29155,-3.860236 0.63968,-3.860236 0.34813,0 1.87753,2.729738 3.39868,6.066084 3.01768,6.618698 18.48585,40.333583 31.71717,69.131681 4.60248,10.01735 8.36815,18.69419 8.36815,19.28189 0,0.94489 -38.95218,86.69977 -41.55838,91.49253 -0.90654,1.66711 -1.03264,-0.21394 -1.05858,-15.79034 l -0.0294,-17.68289 2.54327,-0.91967 c 2.84951,-1.03039 8.28456,-6.77302 8.96099,-9.46809 0.24283,-0.96752 0.0699,-4.65715 -0.38439,-8.19918 -0.45428,-3.54203 -0.82594,-8.15474 -0.82594,-10.25049 0,-4.28562 -0.47225,-4.54738 -4.12794,-2.28804 -3.06558,1.89464 -5.3484,5.04189 -6.54354,9.02138 l -0.91869,3.05895 -0.50666,-3.30877 c -0.27866,-1.81983 -0.33981,-4.21869 -0.13586,-5.3308 0.43983,-2.3986 -0.16063,-2.52817 -2.64818,-0.57146 -3.83459,3.01629 -4.45701,5.78284 -3.88323,17.26054 0.60671,12.13663 0.61485,12.10695 -6.13444,22.37664 -2.493052,3.79339 -4.735988,7.70658 -4.984306,8.69596 -0.248318,0.98939 0.169787,4.00693 0.92912,6.70565 0.759341,2.69872 1.295527,5.52116 1.191537,6.27209 -0.103997,0.75094 -1.841103,3.71017 -3.860241,6.57607 -4.044229,5.74026 -4.405302,7.60865 -2.169527,11.22621 2.747081,4.44486 9.265487,4.88692 14.249687,0.96634 1.0851,-0.85354 2.10557,-1.41925 2.26768,-1.25712 0.40037,0.40035 -9.442357,22.63037 -10.028948,22.65059 -0.256138,0.009 -0.639566,-0.56298 -0.852063,-1.27069 z" id="path4496" inkscape:connector-curvature="0"/>
  </g>
</svg>