<?xml version="1.0" encoding="UTF-8" standalone="no"?>
<!-- Created with Inkscape (http://www.inkscape.org/) -->

<svg
   xmlns:dc="http://purl.org/dc/elements/1.1/"
   xmlns:cc="http://creativecommons.org/ns#"
   xmlns:rdf="http://www.w3.org/1999/02/22-rdf-syntax-ns#"
   xmlns:svg="http://www.w3.org/2000/svg"
   xmlns="http://www.w3.org/2000/svg"
   xmlns:sodipodi="http://sodipodi.sourceforge.net/DTD/sodipodi-0.dtd"
   xmlns:inkscape="http://www.inkscape.org/namespaces/inkscape"
   width="210mm"
   height="297mm"
   viewBox="0 0 210 297"
   version="1.1"
   id="svg8"
   inkscape:version="0.92.1 r15371"
   sodipodi:docname="numbers.svg">
  <defs
     id="defs2" />
  <sodipodi:namedview
     id="base"
     pagecolor="#ffffff"
     bordercolor="#666666"
     borderopacity="1.0"
     inkscape:pageopacity="0.0"
     inkscape:pageshadow="2"
     inkscape:zoom="0.030935922"
     inkscape:cx="-1006.7567"
     inkscape:cy="-6193.8965"
     inkscape:document-units="mm"
     inkscape:current-layer="layer1"
     showgrid="false"
     inkscape:window-width="1920"
     inkscape:window-height="971"
     inkscape:window-x="0"
     inkscape:window-y="31"
     inkscape:window-maximized="1" />
  <metadata
     id="metadata5">
    <rdf:RDF>
      <cc:Work
         rdf:about="">
        <dc:format>image/svg+xml</dc:format>
        <dc:type
           rdf:resource="http://purl.org/dc/dcmitype/StillImage" />
        <dc:title />
      </cc:Work>
    </rdf:RDF>
  </metadata>
  <g
     inkscape:label="Layer 1"
     inkscape:groupmode="layer"
     id="layer1">
    <g
       aria-label="1
2
3
4
5
6
7
8
9
0"
       transform="matrix(4.3160869,0,0,4.3160869,-32.242203,-971.15676)"
       style="font-style:normal;font-weight:normal;font-size:40px;line-height:1.25;font-family:sans-serif;letter-spacing:0px;word-spacing:0px;fill:#45cb3d;fill-opacity:1;stroke:none"
       id="flowRoot4520">
      <path
         d="m -61.594264,310.0287 v -28.63158 h 2.315789 v 28.63158 z"
         style="font-style:normal;font-variant:normal;font-weight:normal;font-stretch:normal;font-family:Bellerose;-inkscape-font-specification:Bellerose;fill:#45cb3d;fill-opacity:1"
         id="path4542"
         inkscape:connector-curvature="0" />
      <path
         d="m -57.594264,358.36495 h 9.263158 v 2.31579 h -13.263158 l 10.863158,-18.77894 q 0.673684,-1.26316 0.673684,-2.52632 0,-2.18947 -1.515789,-3.57895 -1.51579,-1.43158 -3.494737,-1.43158 -1.51579,0 -2.652632,0.7579 -1.136842,0.71579 -1.810526,1.97895 l -2.021053,-1.09474 q 1.010527,-1.89474 2.652632,-2.90526 1.68421,-1.05264 3.831579,-1.05264 3.115789,0 5.221052,2.10527 2.105264,2.10526 2.105264,5.22105 0,1.93684 -0.926316,3.57895 z"
         style="font-style:normal;font-variant:normal;font-weight:normal;font-stretch:normal;font-family:Bellerose;-inkscape-font-specification:Bellerose;fill:#45cb3d;fill-opacity:1"
         id="path4544"
         inkscape:connector-curvature="0" />
      <path
         d="m -53.425843,393.42113 q 3.452632,0.37895 5.768421,2.98947 2.357895,2.56842 2.357895,6.06316 0,3.70526 -2.652632,6.4 -2.652631,2.69474 -6.442105,2.69474 -2.357895,0 -4.463158,-1.22106 -2.105263,-1.22105 -3.368421,-3.2421 l 1.978947,-1.17895 q 0.547369,0.96842 1.431579,1.72632 0.884211,0.75789 2.063158,1.17894 1.221053,0.42106 2.357895,0.42106 2.821053,0 4.8,-1.97895 1.978947,-1.97895 1.978947,-4.8 0,-2.82105 -1.978947,-4.8 -1.978947,-1.97895 -4.8,-1.97895 -1.852632,0 -3.368421,0.88421 l 6.4,-11.62105 h -9.642105 v -2.31579 h 13.515789 z"
         style="font-style:normal;font-variant:normal;font-weight:normal;font-stretch:normal;font-family:Bellerose;-inkscape-font-specification:Bellerose;fill:#45cb3d;fill-opacity:1"
         id="path4546"
         inkscape:connector-curvature="0" />
      <path
         d="m -50.225843,440.12965 -9.936842,13.09473 h 9.936842 z m 0,15.41052 h -10.947368 l -1.684211,-2.61052 14.947369,-19.66316 v 19.95789 h 4.210526 v 2.31579 h -4.210526 v 6.3579 h -2.31579 z"
         style="font-style:normal;font-variant:normal;font-weight:normal;font-stretch:normal;font-family:Bellerose;-inkscape-font-specification:Bellerose;fill:#45cb3d;fill-opacity:1"
         id="path4548"
         inkscape:connector-curvature="0" />
      <path
         d="m -62.225843,508.74815 1.810526,-1.38947 q 2.063158,3.15789 5.852632,3.15789 3.031579,0 4.968421,-2.10526 1.936842,-2.10527 1.936842,-4.8 0,-3.03158 -2.063158,-4.96842 -2.063158,-1.93685 -4.842105,-1.93685 -3.368421,0 -5.389474,2.52632 l -1.810526,-1.05263 v -14.27369 h 13.263158 v 2.31579 h -10.947369 v 9.5579 q 2.231579,-1.38948 4.884211,-1.38948 3.831579,0 6.526316,2.69474 2.694737,2.69474 2.694737,6.52632 0,3.83158 -2.736843,6.52631 -2.736842,2.69474 -6.48421,2.69474 -2.357895,0 -4.378947,-1.09474 -1.978948,-1.09473 -3.284211,-2.98947 z"
         style="font-style:normal;font-variant:normal;font-weight:normal;font-stretch:normal;font-family:Bellerose;-inkscape-font-specification:Bellerose;fill:#45cb3d;fill-opacity:1"
         id="path4550"
         inkscape:connector-curvature="0" />
      <path
         d="m -54.015317,549.36662 q -1.6,0 -2.947368,0.8 -1.347368,0.8 -2.147368,2.14737 -0.8,1.34737 -0.8,2.94737 0,1.6 0.8,2.94737 0.8,1.34737 2.147368,2.14737 1.347368,0.8 2.947368,0.8 1.6,0 2.947369,-0.8 1.347368,-0.8 2.147368,-2.14737 0.8,-1.34737 0.8,-2.94737 0,-1.6 -0.8,-2.94737 -0.8,-1.34737 -2.147368,-2.14737 -1.347369,-0.8 -2.947369,-0.8 z m 1.894737,-14.82105 h 2.652632 l -7.031579,12.88421 q 1.136842,-0.37895 2.48421,-0.37895 1.768421,0 3.242106,0.63158 1.515789,0.63158 2.610526,1.72632 1.094737,1.09474 1.726316,2.61052 0.631579,1.47369 0.631579,3.24211 0,2.14737 -1.094737,4.08421 -1.094737,1.93684 -3.031579,3.03158 -1.936842,1.09474 -4.084211,1.09474 -2.147368,0 -4.08421,-1.09474 -1.936842,-1.09474 -3.031579,-3.03158 -1.094737,-1.93684 -1.094737,-4.08421 0,-2.14737 1.052632,-4.04211 z"
         style="font-style:normal;font-variant:normal;font-weight:normal;font-stretch:normal;font-family:Bellerose;-inkscape-font-specification:Bellerose;fill:#45cb3d;fill-opacity:1"
         id="path4552"
         inkscape:connector-curvature="0" />
      <path
         d="m -58.099527,613.81668 h -2.442105 l 9.178947,-26.27369 h -10.231579 v -2.31579 h 13.515789 z"
         style="font-style:normal;font-variant:normal;font-weight:normal;font-stretch:normal;font-family:Bellerose;-inkscape-font-specification:Bellerose;fill:#45cb3d;fill-opacity:1"
         id="path4554"
         inkscape:connector-curvature="0" />
      <path
         d="m -57.846896,648.87725 q -3.073684,-2.14736 -3.073684,-5.89473 0,-3.03158 2.105263,-5.09474 2.105264,-2.06316 5.052632,-2.06316 1.936842,0 3.578947,0.96842 1.684211,0.92632 2.610527,2.61053 0.968421,1.64211 0.968421,3.57895 0,3.74737 -3.073685,5.89473 2.021053,1.09474 3.2,3.07369 1.178948,1.93684 1.178948,4.33684 0,2.23158 -1.136842,4.21053 -1.136842,1.97894 -3.11579,3.11579 -1.978947,1.13684 -4.210526,1.13684 -2.231579,0 -4.210526,-1.13684 -1.978948,-1.13685 -3.11579,-3.11579 -1.136842,-1.97895 -1.136842,-4.21053 0,-2.35789 1.178947,-4.33684 1.221053,-1.97895 3.2,-3.07369 z m 4.084211,-10.73684 q -1.473684,0 -2.610526,0.71579 -1.094737,0.71579 -1.684211,1.85263 -0.547368,1.09474 -0.547368,2.27369 0,2.23158 1.515789,3.53684 1.51579,1.30526 3.326316,1.30526 2.231579,0 3.536842,-1.51579 1.305263,-1.51579 1.305263,-3.32631 0,-1.47369 -0.715789,-2.56842 -0.71579,-1.13685 -1.852632,-1.68421 -1.094737,-0.58948 -2.273684,-0.58948 z m 0,12 q -2.694737,0 -4.421053,1.85263 -1.726315,1.81053 -1.726315,4.29474 0,2.69474 1.810526,4.42105 1.852631,1.72632 4.336842,1.72632 1.810526,0 3.2,-0.84211 1.431579,-0.88421 2.189474,-2.27368 0.757894,-1.43158 0.757894,-3.03158 0,-2.69474 -1.852631,-4.42105 -1.810527,-1.72632 -4.294737,-1.72632 z"
         style="font-style:normal;font-variant:normal;font-weight:normal;font-stretch:normal;font-family:Bellerose;-inkscape-font-specification:Bellerose;fill:#45cb3d;fill-opacity:1"
         id="path4556"
         inkscape:connector-curvature="0" />
      <path
         d="m -54.015317,700.56941 q 1.6,0 2.947369,-0.8 1.347368,-0.8 2.147368,-2.14737 0.8,-1.34736 0.8,-2.94736 0,-1.6 -0.8,-2.94737 -0.8,-1.34737 -2.147368,-2.14737 -1.347369,-0.8 -2.947369,-0.8 -1.6,0 -2.947368,0.8 -1.347368,0.8 -2.147368,2.14737 -0.8,1.34737 -0.8,2.94737 0,1.6 0.8,2.94736 0.8,1.34737 2.147368,2.14737 1.347368,0.8 2.947368,0.8 z m -1.768421,14.52632 h -2.652631 l 6.905263,-12.58948 q -1.136842,0.37895 -2.484211,0.37895 -2.147368,0 -4.08421,-1.09473 -1.936842,-1.09474 -3.031579,-3.03158 -1.094737,-1.93685 -1.094737,-4.08421 0,-2.14737 1.094737,-4.08421 1.094737,-1.93685 3.031579,-3.03158 1.936842,-1.09474 4.08421,-1.09474 1.768421,0 3.242106,0.63158 1.515789,0.63158 2.610526,1.72631 1.094737,1.09474 1.726316,2.61053 0.631579,1.47368 0.631579,3.24211 0,2.14736 -1.052632,4.0421 z"
         style="font-style:normal;font-variant:normal;font-weight:normal;font-stretch:normal;font-family:Bellerose;-inkscape-font-specification:Bellerose;fill:#45cb3d;fill-opacity:1"
         id="path4558"
         inkscape:connector-curvature="0" />
      <path
         d="m -47.362685,736.5142 q 4.08421,0 7.494737,2.02106 3.410526,1.97894 5.389473,5.38947 2.021053,3.36842 2.021053,7.45263 0,4.08421 -2.021053,7.49474 -1.978947,3.41052 -5.389473,5.43158 -3.410527,1.97894 -7.494737,1.97894 -4.084211,0 -7.494737,-1.97894 -3.368421,-2.02106 -5.389474,-5.43158 -1.978947,-3.41053 -1.978947,-7.49474 0,-2.98947 1.136842,-5.72632 1.136842,-2.73684 3.2,-4.8 2.105263,-2.10526 4.8,-3.2 2.736842,-1.13684 5.726316,-1.13684 z m 0,2.31579 q -3.368421,0 -6.273684,1.68421 -2.905263,1.64211 -4.589474,4.58948 -1.68421,2.94736 -1.68421,6.27368 0,3.41053 1.68421,6.31579 1.684211,2.90526 4.589474,4.58947 2.905263,1.68421 6.273684,1.68421 3.410526,0 6.315789,-1.68421 2.905264,-1.68421 4.589474,-4.58947 1.684211,-2.90526 1.684211,-6.31579 0,-3.32632 -1.684211,-6.27368 -1.68421,-2.94737 -4.589474,-4.58948 -2.905263,-1.68421 -6.315789,-1.68421 z"
         style="font-style:normal;font-variant:normal;font-weight:normal;font-stretch:normal;font-family:Bellerose;-inkscape-font-specification:Bellerose;fill:#45cb3d;fill-opacity:1"
         id="path4560"
         inkscape:connector-curvature="0" />
    </g>
    <flowRoot
       xml:space="preserve"
       id="flowRoot4565"
       style="font-style:normal;font-weight:normal;font-size:40px;line-height:1.25;font-family:sans-serif;letter-spacing:0px;word-spacing:0px;fill:#000000;fill-opacity:1;stroke:none"><flowRegion
         id="flowRegion4567"><rect
           id="rect4569"
           width="274.76151"
           height="628.31488"
           x="-156.57364"
           y="187.11842" /></flowRegion><flowPara
         id="flowPara4571" /></flowRoot>  </g>
</svg>
